Black Wide — UC.ufo
<glyph name="A" format="1">
  <advance width="1489"/>
  <unicode hex="0041"/>
  <outline>
    <contour>
      <point x="866" y="1486" type="move" name="top"/>
    </contour>
    <contour>
      <point x="1250" y="20" type="move" name="ogonek"/>
    </contour>
    <contour>
      <point x="627" y="0" type="move" name="bottom"/>
    </contour>
    <contour>
      <point x="-161" y="103" type="line"/>
      <point x="-169" y="0" type="line"/>
      <point x="430" y="0" type="line"/>
      <point x="437" y="103" type="line"/>
      <point x="230" y="131" type="line"/>
      <point x="710" y="1121" type="line"/>
      <point x="836" y="1408" type="line"/>
      <point x="772" y="1419" type="line"/>
      <point x="794" y="1095" type="line"/>
      <point x="974" y="131" type="line"/>
      <point x="796" y="103" type="line"/>
      <point x="793" y="0" type="line"/>
      <point x="1514" y="0" type="line"/>
      <point x="1519" y="103" type="line"/>
      <point x="1342" y="133" type="line"/>
      <point x="1044" y="1490" type="line"/>
      <point x="701" y="1490" type="line"/>
      <point x="-9" y="131" type="line"/>
    </contour>
    <contour>
      <point x="329" y="554" type="line"/>
      <point x="264" y="407" type="line"/>
      <point x="1022" y="407" type="line"/>
      <point x="999" y="554" type="line"/>
    </contour>
  </outline>
</glyph>
<glyph name="B" format="1">
  <advance width="1527"/>
  <unicode hex="0042"/>
  <outline>
    <contour>
      <point x="890" y="1486" type="move" name="top"/>
    </contour>
    <contour>
      <point x="684" y="0" type="move" name="bottom"/>
    </contour>
    <contour>
      <point x="653" y="-20" type="curve"/>
      <point x="1156" y="-20"/>
      <point x="1443" y="122"/>
      <point x="1436" y="488" type="curve"/>
      <point x="1433" y="646"/>
      <point x="1280" y="789"/>
      <point x="1040" y="784" type="curve"/>
      <point x="1309" y="844"/>
      <point x="1446" y="968"/>
      <point x="1434" y="1182" type="curve"/>
      <point x="1425" y="1342"/>
      <point x="1325" y="1502"/>
      <point x="911" y="1502" type="curve"/>
      <point x="772" y="1502"/>
      <point x="655" y="1488"/>
      <point x="532" y="1486" type="curve"/>
      <point x="179" y="1486" type="line"/>
      <point x="168" y="1379" type="line"/>
      <point x="327" y="1355" type="line"/>
      <point x="162" y="131" type="line"/>
      <point x="7" y="103" type="line"/>
      <point x="0" y="0" type="line"/>
      <point x="311" y="0" type="line" smooth="yes"/>
      <point x="406" y="0"/>
      <point x="550" y="-20"/>
    </contour>
    <contour>
      <point x="450" y="149" type="curve"/>
      <point x="485" y="49" type="line"/>
      <point x="576" y="714" type="line"/>
      <point x="503" y="695" type="line"/>
      <point x="599" y="701"/>
      <point x="639" y="703"/>
      <point x="739" y="703" type="curve"/>
      <point x="967" y="703"/>
      <point x="1065" y="622"/>
      <point x="1074" y="456" type="curve"/>
      <point x="1088" y="211"/>
      <point x="946" y="101"/>
      <point x="696" y="101" type="curve"/>
      <point x="627" y="101"/>
      <point x="447" y="124"/>
    </contour>
    <contour>
      <point x="562" y="837" type="curve"/>
      <point x="585" y="824" type="line"/>
      <point x="672" y="1448" type="line"/>
      <point x="618" y="1337" type="line"/>
      <point x="605" y="1374"/>
      <point x="778" y="1379"/>
      <point x="833" y="1379" type="curve"/>
      <point x="1008" y="1379"/>
      <point x="1098" y="1301"/>
      <point x="1106" y="1156" type="curve"/>
      <point x="1119" y="924"/>
      <point x="947" y="836"/>
      <point x="748" y="836" type="curve"/>
      <point x="653" y="836"/>
      <point x="633" y="835"/>
    </contour>
  </outline>
</glyph>
<glyph name="C" format="1">
  <advance width="1444"/>
  <unicode hex="0043"/>
  <outline>
    <contour>
      <point x="1006" y="1486" type="move" name="top"/>
    </contour>
    <contour>
      <point x="745" y="0" type="move" name="bottom"/>
    </contour>
    <contour>
      <point x="742" y="-16" type="curve"/>
      <point x="1051" y="-16"/>
      <point x="1205" y="71"/>
      <point x="1287" y="130" type="curve"/>
      <point x="1330" y="409" type="line"/>
      <point x="1130" y="409" type="line"/>
      <point x="1108" y="334"/>
      <point x="1083" y="254"/>
      <point x="1048" y="213" type="curve"/>
      <point x="970" y="141"/>
      <point x="852" y="140"/>
      <point x="794" y="140" type="curve"/>
      <point x="567" y="140"/>
      <point x="471" y="314"/>
      <point x="455" y="642" type="curve"/>
      <point x="441" y="968"/>
      <point x="588" y="1379"/>
      <point x="953" y="1379" type="curve"/>
      <point x="1013" y="1379"/>
      <point x="1053" y="1372"/>
      <point x="1088" y="1362" type="curve"/>
      <point x="1130" y="1059" type="line"/>
      <point x="1377" y="1059" type="line"/>
      <point x="1438" y="1450" type="line"/>
      <point x="1358" y="1457"/>
      <point x="1191" y="1504"/>
      <point x="1005" y="1504" type="curve"/>
      <point x="441" y="1504"/>
      <point x="60" y="1179"/>
      <point x="71" y="622" type="curve"/>
      <point x="77" y="281"/>
      <point x="261" y="-16"/>
    </contour>
  </outline>
</glyph>
<glyph name="D" format="1">
  <advance width="1648"/>
  <unicode hex="0044"/>
  <outline>
    <contour>
      <point x="896" y="1486" type="move" name="top"/>
    </contour>
    <contour>
      <point x="665" y="0" type="move" name="bottom"/>
    </contour>
    <contour>
      <point x="666" y="-16" type="curve"/>
      <point x="1328" y="-16"/>
      <point x="1620" y="362"/>
      <point x="1611" y="900" type="curve"/>
      <point x="1606" y="1242"/>
      <point x="1415" y="1504"/>
      <point x="897" y="1502" type="curve"/>
      <point x="771" y="1502"/>
      <point x="639" y="1488"/>
      <point x="520" y="1486" type="curve"/>
      <point x="184" y="1486" type="line"/>
      <point x="174" y="1378" type="line"/>
      <point x="327" y="1356" type="line"/>
      <point x="157" y="130" type="line"/>
      <point x="-13" y="102" type="line"/>
      <point x="-24" y="0" type="line"/>
      <point x="354" y="0" type="line"/>
      <point x="453" y="0"/>
      <point x="588" y="-16"/>
    </contour>
    <contour>
      <point x="465" y="152" type="curve"/>
      <point x="490" y="63" type="line"/>
      <point x="682" y="1397" type="line"/>
      <point x="657" y="1343" type="line"/>
      <point x="691" y="1360"/>
      <point x="752" y="1378"/>
      <point x="863" y="1378" type="curve"/>
      <point x="1118" y="1378"/>
      <point x="1234" y="1236"/>
      <point x="1240" y="866" type="curve"/>
      <point x="1245" y="532"/>
      <point x="1094" y="108"/>
      <point x="683" y="108" type="curve"/>
      <point x="606" y="108"/>
      <point x="465" y="141"/>
    </contour>
  </outline>
</glyph>
<glyph name="E" format="1">
  <advance width="1474"/>
  <unicode hex="0045"/>
  <outline>
    <contour>
      <point x="143" y="1486" type="move" name="topleft"/>
    </contour>
    <contour>
      <point x="823" y="1486" type="move" name="top"/>
    </contour>
    <contour>
      <point x="1196" y="20" type="move" name="ogonek"/>
    </contour>
    <contour>
      <point x="665" y="0" type="move" name="bottom"/>
    </contour>
    <contour>
      <point x="-8" y="103" type="line"/>
      <point x="-21" y="0" type="line"/>
      <point x="1306" y="0" type="line"/>
      <point x="1381" y="440" type="line"/>
      <point x="1205" y="454" type="line"/>
      <point x="1056" y="180" type="line"/>
      <point x="513" y="146" type="line"/>
      <point x="588" y="708" type="line"/>
      <point x="1082" y="679" type="line"/>
      <point x="1114" y="902" type="line"/>
      <point x="606" y="859" type="line"/>
      <point x="675" y="1371" type="line"/>
      <point x="1089" y="1345" type="line"/>
      <point x="1168" y="1128" type="line"/>
      <point x="1341" y="1128" type="line"/>
      <point x="1368" y="1486" type="line"/>
      <point x="179" y="1486" type="line"/>
      <point x="168" y="1379" type="line"/>
      <point x="327" y="1355" type="line"/>
      <point x="159" y="130" type="line"/>
    </contour>
  </outline>
</glyph>
<glyph name="F" format="1">
  <advance width="1361"/>
  <unicode hex="0046"/>
  <outline>
    <contour>
      <point x="721" y="-164" type="move" name="btm"/>
    </contour>
    <contour>
      <point x="825" y="1486" type="move" name="top"/>
    </contour>
    <contour>
      <point x="3" y="102" type="line"/>
      <point x="-8" y="0" type="line"/>
      <point x="795" y="0" type="line"/>
      <point x="802" y="102" type="line"/>
      <point x="505" y="130" type="line"/>
      <point x="584" y="685" type="line"/>
      <point x="1108" y="648" type="line"/>
      <point x="1137" y="865" type="line"/>
      <point x="602" y="837" type="line"/>
      <point x="676" y="1369" type="line"/>
      <point x="1106" y="1345" type="line"/>
      <point x="1138" y="1114" type="line"/>
      <point x="1357" y="1114" type="line"/>
      <point x="1392" y="1486" type="line"/>
      <point x="181" y="1486" type="line"/>
      <point x="167" y="1379" type="line"/>
      <point x="326" y="1355" type="line"/>
      <point x="156" y="130" type="line"/>
    </contour>
  </outline>
</glyph>
<glyph name="G" format="1">
  <advance width="1571"/>
  <unicode hex="0047"/>
  <outline>
    <contour>
      <point x="956" y="1486" type="move" name="top"/>
    </contour>
    <contour>
      <point x="732" y="0" type="move" name="bottom"/>
    </contour>
    <contour>
      <point x="701" y="-16" type="curve"/>
      <point x="900" y="-16"/>
      <point x="1048" y="20"/>
      <point x="1172" y="50" type="curve"/>
      <point x="1236" y="66"/>
      <point x="1322" y="78"/>
      <point x="1368" y="82" type="curve"/>
      <point x="1457" y="735" type="line"/>
      <point x="867" y="735" type="line"/>
      <point x="851" y="593" type="line"/>
      <point x="1089" y="577" type="line"/>
      <point x="1036" y="160" type="line"/>
      <point x="968" y="137"/>
      <point x="875" y="130"/>
      <point x="768" y="130" type="curve"/>
      <point x="544" y="130"/>
      <point x="443" y="358"/>
      <point x="437" y="642" type="curve"/>
      <point x="430" y="1038"/>
      <point x="551" y="1379"/>
      <point x="961" y="1379" type="curve"/>
      <point x="1057" y="1379"/>
      <point x="1124" y="1363"/>
      <point x="1179" y="1336" type="curve"/>
      <point x="1193" y="1113" type="line"/>
      <point x="1429" y="1113" type="line"/>
      <point x="1493" y="1436" type="line"/>
      <point x="1472" y="1440"/>
      <point x="1452" y="1444"/>
      <point x="1430" y="1448" type="curve"/>
      <point x="1337" y="1468"/>
      <point x="1224" y="1504"/>
      <point x="959" y="1504" type="curve"/>
      <point x="374" y="1504"/>
      <point x="50" y="1148"/>
      <point x="69" y="612" type="curve"/>
      <point x="81" y="281"/>
      <point x="263" y="-16"/>
    </contour>
  </outline>
</glyph>
<glyph name="H" format="1">
  <advance width="1777"/>
  <unicode hex="0048"/>
  <outline>
    <contour>
      <point x="1006" y="1486" type="move" name="top"/>
    </contour>
    <contour>
      <point x="819" y="0" type="move" name="bottom"/>
    </contour>
    <contour>
      <point x="1" y="102" type="line"/>
      <point x="-8" y="0" type="line"/>
      <point x="684" y="0" type="line"/>
      <point x="691" y="102" type="line"/>
      <point x="504" y="130" type="line"/>
      <point x="674" y="1355" type="line"/>
      <point x="864" y="1379" type="line"/>
      <point x="875" y="1486" type="line"/>
      <point x="182" y="1486" type="line"/>
      <point x="169" y="1379" type="line"/>
      <point x="325" y="1355" type="line"/>
      <point x="156" y="130" type="line"/>
    </contour>
    <contour>
      <point x="526" y="824" type="line"/>
      <point x="528" y="688" type="line"/>
      <point x="1294" y="688" type="line"/>
      <point x="1292" y="824" type="line"/>
    </contour>
    <contour>
      <point x="958" y="102" type="line"/>
      <point x="946" y="0" type="line"/>
      <point x="1635" y="0" type="line"/>
      <point x="1646" y="102" type="line"/>
      <point x="1476" y="130" type="line"/>
      <point x="1644" y="1356" type="line"/>
      <point x="1808" y="1378" type="line"/>
      <point x="1819" y="1486" type="line"/>
      <point x="1138" y="1486" type="line"/>
      <point x="1127" y="1378" type="line"/>
      <point x="1294" y="1356" type="line"/>
      <point x="1126" y="130" type="line"/>
    </contour>
  </outline>
</glyph>
<glyph name="I" format="1">
  <advance width="835"/>
  <unicode hex="0049"/>
  <outline>
    <contour>
      <point x="519" y="-164" type="move" name="btm"/>
    </contour>
    <contour>
      <point x="160" y="1486" type="move" name="topleft"/>
    </contour>
    <contour>
      <point x="521" y="1486" type="move" name="top"/>
    </contour>
    <contour>
      <point x="551" y="20" type="move" name="ogonek"/>
    </contour>
    <contour>
      <point x="323" y="0" type="move" name="bottom"/>
    </contour>
    <contour>
      <point x="0" y="103" type="line"/>
      <point x="-13" y="0" type="line"/>
      <point x="696" y="0" type="line"/>
      <point x="701" y="103" type="line"/>
      <point x="512" y="131" type="line"/>
      <point x="673" y="1355" type="line"/>
      <point x="858" y="1379" type="line"/>
      <point x="869" y="1486" type="line"/>
      <point x="176" y="1486" type="line"/>
      <point x="166" y="1379" type="line"/>
      <point x="325" y="1355" type="line"/>
      <point x="164" y="131" type="line"/>
    </contour>
  </outline>
</glyph>
<glyph name="J" format="1">
  <advance width="772"/>
  <unicode hex="004A"/>
  <outline>
    <contour>
      <point x="294" y="-164" type="move" name="btm"/>
    </contour>
    <contour>
      <point x="519" y="1486" type="move" name="top"/>
    </contour>
    <contour>
      <point x="-207" y="-233" type="curve"/>
      <point x="-152" y="-336" type="line"/>
      <point x="157" y="-298"/>
      <point x="390" y="-138"/>
      <point x="477" y="74" type="curve"/>
      <point x="513" y="166"/>
      <point x="584" y="804"/>
      <point x="653" y="1355" type="curve"/>
      <point x="812" y="1379" type="line"/>
      <point x="827" y="1486" type="line"/>
      <point x="162" y="1486" type="line"/>
      <point x="148" y="1379" type="line"/>
      <point x="309" y="1353" type="line"/>
      <point x="260" y="929"/>
      <point x="202" y="462"/>
      <point x="141" y="84" type="curve"/>
      <point x="118" y="-45"/>
      <point x="0" y="-168"/>
    </contour>
  </outline>
</glyph>
<glyph name="K" format="1">
  <advance width="1639"/>
  <unicode hex="004B"/>
  <outline>
    <contour>
      <point x="978" y="1486" type="move" name="top"/>
    </contour>
    <contour>
      <point x="860" y="0" type="move" name="bottom"/>
    </contour>
    <contour>
      <point x="547" y="672" type="line"/>
      <point x="523" y="456" type="line"/>
      <point x="1522" y="1355" type="line"/>
      <point x="1659" y="1379" type="line"/>
      <point x="1671" y="1486" type="line"/>
      <point x="1137" y="1486" type="line"/>
      <point x="1127" y="1381" type="line"/>
      <point x="1277" y="1355" type="line"/>
    </contour>
    <contour>
      <point x="2" y="103" type="line"/>
      <point x="-11" y="0" type="line"/>
      <point x="690" y="0" type="line"/>
      <point x="698" y="103" type="line"/>
      <point x="504" y="131" type="line"/>
      <point x="668" y="1355" type="line"/>
      <point x="860" y="1379" type="line"/>
      <point x="871" y="1486" type="line"/>
      <point x="180" y="1486" type="line"/>
      <point x="168" y="1379" type="line"/>
      <point x="325" y="1355" type="line"/>
      <point x="162" y="131" type="line"/>
    </contour>
    <contour>
      <point x="1165" y="0" type="curve"/>
      <point x="1604" y="0" type="line"/>
      <point x="1616" y="103" type="line"/>
      <point x="1486" y="131" type="line"/>
      <point x="1434" y="157"/>
      <point x="1372" y="268"/>
      <point x="1259" y="452" type="curve"/>
      <point x="1195" y="557"/>
      <point x="1064" y="807"/>
      <point x="993" y="906" type="curve"/>
      <point x="763" y="678" type="line"/>
      <point x="845" y="529"/>
      <point x="926" y="332"/>
      <point x="989" y="204" type="curve"/>
      <point x="1065" y="49"/>
      <point x="1101" y="6"/>
    </contour>
  </outline>
</glyph>
<glyph name="L" format="1">
  <advance width="1381"/>
  <unicode hex="004C"/>
  <outline>
    <contour>
      <point x="933" y="1110" type="move" name="car"/>
    </contour>
    <contour>
      <point x="533" y="1486" type="move" name="top"/>
    </contour>
    <contour>
      <point x="643" y="0" type="move" name="bottom"/>
    </contour>
    <contour>
      <point x="9" y="103" type="line"/>
      <point x="-1" y="0" type="line"/>
      <point x="1226" y="0" type="line"/>
      <point x="1330" y="560" type="line"/>
      <point x="1149" y="582" type="line"/>
      <point x="940" y="145" type="line"/>
      <point x="508" y="125" type="line"/>
      <point x="673" y="1355" type="line"/>
      <point x="873" y="1379" type="line"/>
      <point x="883" y="1486" type="line"/>
      <point x="180" y="1486" type="line"/>
      <point x="167" y="1379" type="line"/>
      <point x="325" y="1355" type="line"/>
      <point x="162" y="131" type="line"/>
    </contour>
  </outline>
</glyph>
<glyph name="M" format="1">
  <advance width="2232"/>
  <unicode hex="004D"/>
  <outline>
    <contour>
      <point x="1225" y="1486" type="move" name="top"/>
    </contour>
    <contour>
      <point x="973" y="0" type="move" name="bottom"/>
    </contour>
    <contour>
      <point x="-76" y="103" type="line"/>
      <point x="-87" y="0" type="line"/>
      <point x="565" y="0" type="line"/>
      <point x="574" y="103" type="line"/>
      <point x="332" y="131" type="line"/>
      <point x="549" y="979" type="line"/>
      <point x="637" y="1355" type="line"/>
      <point x="706" y="989" type="line"/>
      <point x="880" y="0" type="line"/>
      <point x="1053" y="-2" type="line"/>
      <point x="1527" y="1013" type="line"/>
      <point x="1681" y="1356" type="line"/>
      <point x="1663" y="965" type="line"/>
      <point x="1619" y="131" type="line"/>
      <point x="1413" y="105" type="line"/>
      <point x="1406" y="0" type="line"/>
      <point x="2150" y="0" type="line"/>
      <point x="2157" y="103" type="line"/>
      <point x="1960" y="131" type="line"/>
      <point x="1981" y="1355" type="line"/>
      <point x="2175" y="1379" type="line"/>
      <point x="2188" y="1486" type="line"/>
      <point x="1557" y="1486" type="line"/>
      <point x="1182" y="658" type="line"/>
      <point x="1114" y="490" type="line"/>
      <point x="1086" y="658" type="line"/>
      <point x="945" y="1486" type="line"/>
      <point x="244" y="1486" type="line"/>
      <point x="229" y="1379" type="line"/>
      <point x="442" y="1355" type="line"/>
      <point x="103" y="131" type="line"/>
    </contour>
  </outline>
</glyph>
<glyph name="N" format="1">
  <advance width="1717"/>
  <unicode hex="004E"/>
  <outline>
    <contour>
      <point x="1006" y="1486" type="move" name="top"/>
    </contour>
    <contour>
      <point x="810" y="0" type="move" name="bottom"/>
    </contour>
    <contour>
      <point x="4" y="102" type="line"/>
      <point x="-3" y="0" type="line"/>
      <point x="563" y="0" type="line"/>
      <point x="572" y="102" type="line"/>
      <point x="377" y="130" type="line"/>
      <point x="515" y="1383" type="line"/>
      <point x="460" y="1379" type="line"/>
      <point x="596" y="960" type="line"/>
      <point x="1050" y="0" type="line"/>
      <point x="1417" y="0" type="line"/>
      <point x="1611" y="1356" type="line"/>
      <point x="1776" y="1378" type="line"/>
      <point x="1785" y="1486" type="line"/>
      <point x="1246" y="1486" type="line"/>
      <point x="1237" y="1378" type="line"/>
      <point x="1405" y="1356" type="line"/>
      <point x="1246" y="137" type="line"/>
      <point x="1305" y="142" type="line"/>
      <point x="1176" y="518" type="line"/>
      <point x="738" y="1486" type="line"/>
      <point x="180" y="1486" type="line"/>
      <point x="165" y="1378" type="line"/>
      <point x="329" y="1356" type="line"/>
      <point x="162" y="130" type="line"/>
    </contour>
  </outline>
</glyph>
<glyph name="O" format="1">
  <advance width="1579"/>
  <unicode hex="004F"/>
  <outline>
    <contour>
      <point x="171" y="1486" type="move" name="topleft"/>
    </contour>
    <contour>
      <point x="817" y="744" type="move" name="center"/>
    </contour>
    <contour>
      <point x="713" y="0" type="move" name="bottom"/>
    </contour>
    <contour>
      <point x="913" y="1486" type="move" name="top"/>
    </contour>
    <contour>
      <point x="1369" y="1486" type="move" name="topright"/>
    </contour>
    <contour>
      <point x="951" y="20" type="move" name="ogonek"/>
    </contour>
    <contour>
      <point x="704" y="-20" type="curve"/>
      <point x="1294" y="-20"/>
      <point x="1549" y="428"/>
      <point x="1540" y="872" type="curve"/>
      <point x="1534" y="1208"/>
      <point x="1355" y="1506"/>
      <point x="908" y="1506" type="curve"/>
      <point x="341" y="1506"/>
      <point x="64" y="1076"/>
      <point x="73" y="622" type="curve"/>
      <point x="80" y="258"/>
      <point x="266" y="-20"/>
    </contour>
    <contour>
      <point x="733" y="100" type="curve"/>
      <point x="513" y="100"/>
      <point x="451" y="380"/>
      <point x="446" y="634" type="curve"/>
      <point x="439" y="1014"/>
      <point x="599" y="1384"/>
      <point x="879" y="1384" type="curve"/>
      <point x="1075" y="1384"/>
      <point x="1158" y="1188"/>
      <point x="1164" y="860" type="curve"/>
      <point x="1173" y="438"/>
      <point x="1026" y="100"/>
    </contour>
  </outline>
</glyph>
<glyph name="P" format="1">
  <advance width="1460"/>
  <unicode hex="0050"/>
  <outline>
    <contour>
      <point x="861" y="1486" type="move" name="top"/>
    </contour>
    <contour>
      <point x="-10" y="102" type="line"/>
      <point x="-20" y="0" type="line"/>
      <point x="761" y="0" type="line"/>
      <point x="766" y="102" type="line"/>
      <point x="506" y="130" type="line"/>
      <point x="684" y="1451" type="line"/>
      <point x="556" y="1337" type="line"/>
      <point x="647" y="1370"/>
      <point x="733" y="1378"/>
      <point x="796" y="1378" type="curve"/>
      <point x="987" y="1378"/>
      <point x="1106" y="1298"/>
      <point x="1109" y="1098" type="curve"/>
      <point x="1111" y="819"/>
      <point x="969" y="630"/>
      <point x="718" y="630" type="curve"/>
      <point x="626" y="630"/>
      <point x="538" y="646"/>
      <point x="489" y="654" type="curve"/>
      <point x="497" y="513" type="line"/>
      <point x="528" y="510"/>
      <point x="647" y="503"/>
      <point x="709" y="503" type="curve"/>
      <point x="1178" y="503"/>
      <point x="1485" y="721"/>
      <point x="1466" y="1105" type="curve"/>
      <point x="1453" y="1363"/>
      <point x="1287" y="1502"/>
      <point x="864" y="1502" type="curve"/>
      <point x="751" y="1502"/>
      <point x="639" y="1486"/>
      <point x="509" y="1486" type="curve"/>
      <point x="179" y="1486" type="line"/>
      <point x="166" y="1379" type="line"/>
      <point x="327" y="1355" type="line"/>
      <point x="156" y="130" type="line"/>
    </contour>
  </outline>
</glyph>
<glyph name="Q" format="1">
  <advance width="1578"/>
  <unicode hex="0051"/>
  <outline>
    <contour>
      <point x="1104" y="-426" type="curve"/>
      <point x="1310" y="-426"/>
      <point x="1451" y="-358"/>
      <point x="1509" y="-318" type="curve"/>
      <point x="1504" y="-139" type="line"/>
      <point x="1415" y="-167"/>
      <point x="1266" y="-177"/>
      <point x="1199" y="-177" type="curve"/>
      <point x="1021" y="-177"/>
      <point x="877" y="-163"/>
      <point x="876" y="-4" type="curve"/>
      <point x="708" y="-20" type="line"/>
      <point x="649" y="-279"/>
      <point x="795" y="-426"/>
    </contour>
    <contour>
      <point x="702" y="-20" type="curve"/>
      <point x="1292" y="-20"/>
      <point x="1547" y="428"/>
      <point x="1538" y="872" type="curve"/>
      <point x="1531" y="1208"/>
      <point x="1353" y="1506"/>
      <point x="906" y="1506" type="curve"/>
      <point x="339" y="1506"/>
      <point x="62" y="1076"/>
      <point x="71" y="622" type="curve"/>
      <point x="77" y="258"/>
      <point x="263" y="-20"/>
    </contour>
    <contour>
      <point x="730" y="100" type="curve"/>
      <point x="510" y="100"/>
      <point x="448" y="380"/>
      <point x="444" y="634" type="curve"/>
      <point x="436" y="1014"/>
      <point x="596" y="1384"/>
      <point x="877" y="1384" type="curve"/>
      <point x="1073" y="1384"/>
      <point x="1156" y="1188"/>
      <point x="1162" y="860" type="curve"/>
      <point x="1170" y="438"/>
      <point x="1024" y="100"/>
    </contour>
  </outline>
</glyph>
<glyph name="R" format="1">
  <advance width="1577"/>
  <unicode hex="0052"/>
  <outline>
    <contour>
      <point x="843" y="1486" type="move" name="top"/>
    </contour>
    <contour>
      <point x="776" y="0" type="move" name="bottom"/>
    </contour>
    <contour>
      <point x="5" y="102" type="line"/>
      <point x="-4" y="0" type="line"/>
      <point x="696" y="0" type="line"/>
      <point x="703" y="102" type="line"/>
      <point x="497" y="130" type="line"/>
      <point x="674" y="1432" type="line"/>
      <point x="614" y="1351" type="line"/>
      <point x="671" y="1379"/>
      <point x="777" y="1379"/>
      <point x="819" y="1379" type="curve"/>
      <point x="1007" y="1379"/>
      <point x="1109" y="1305"/>
      <point x="1118" y="1150" type="curve"/>
      <point x="1132" y="907"/>
      <point x="998" y="792"/>
      <point x="781" y="778" type="curve"/>
      <point x="757" y="776"/>
      <point x="609" y="777"/>
      <point x="556" y="779" type="curve"/>
      <point x="542" y="645" type="line"/>
      <point x="607" y="644"/>
      <point x="755" y="642"/>
      <point x="770" y="646" type="curve"/>
      <point x="827" y="600"/>
      <point x="895" y="376"/>
      <point x="967" y="196" type="curve"/>
      <point x="1013" y="102"/>
      <point x="1066" y="0"/>
      <point x="1118" y="0" type="curve"/>
      <point x="1502" y="0" type="line"/>
      <point x="1513" y="103" type="line"/>
      <point x="1382" y="105"/>
      <point x="1355" y="224"/>
      <point x="1283" y="359" type="curve"/>
      <point x="1243" y="446"/>
      <point x="1121" y="675"/>
      <point x="1037" y="671" type="curve"/>
      <point x="957" y="657" type="line"/>
      <point x="1260" y="658"/>
      <point x="1479" y="888"/>
      <point x="1474" y="1129" type="curve"/>
      <point x="1470" y="1363"/>
      <point x="1328" y="1502"/>
      <point x="890" y="1502" type="curve"/>
      <point x="712" y="1502"/>
      <point x="645" y="1486"/>
      <point x="508" y="1486" type="curve"/>
      <point x="179" y="1486" type="line"/>
      <point x="167" y="1378" type="line"/>
      <point x="325" y="1355" type="line"/>
      <point x="157" y="130" type="line"/>
    </contour>
  </outline>
</glyph>
<glyph name="S" format="1">
  <advance width="1238"/>
  <unicode hex="0053"/>
  <outline>
    <contour>
      <point x="749" y="1486" type="move" name="top"/>
    </contour>
    <contour>
      <point x="523" y="0" type="move" name="bottom"/>
    </contour>
    <contour>
      <point x="516" y="-22" type="curve"/>
      <point x="938" y="-22"/>
      <point x="1156" y="194"/>
      <point x="1152" y="432" type="curve"/>
      <point x="1148" y="628"/>
      <point x="984" y="756"/>
      <point x="800" y="860" type="curve"/>
      <point x="594" y="980"/>
      <point x="474" y="1058"/>
      <point x="472" y="1184" type="curve"/>
      <point x="470" y="1304"/>
      <point x="575" y="1382"/>
      <point x="735" y="1382" type="curve"/>
      <point x="821" y="1382"/>
      <point x="892" y="1366"/>
      <point x="938" y="1334" type="curve"/>
      <point x="958" y="1138" type="line"/>
      <point x="1153" y="1138" type="line"/>
      <point x="1204" y="1432" type="line"/>
      <point x="1137" y="1468"/>
      <point x="993" y="1504"/>
      <point x="758" y="1504" type="curve"/>
      <point x="412" y="1504"/>
      <point x="150" y="1352"/>
      <point x="155" y="1070" type="curve"/>
      <point x="159" y="866"/>
      <point x="332" y="730"/>
      <point x="524" y="620" type="curve"/>
      <point x="720" y="506"/>
      <point x="818" y="428"/>
      <point x="819" y="320" type="curve"/>
      <point x="819" y="190"/>
      <point x="721" y="102"/>
      <point x="510" y="102" type="curve"/>
      <point x="413" y="102"/>
      <point x="318" y="126"/>
      <point x="266" y="164" type="curve"/>
      <point x="250" y="382" type="line"/>
      <point x="55" y="382" type="line"/>
      <point x="-3" y="74" type="line"/>
      <point x="49" y="38"/>
      <point x="280" y="-22"/>
    </contour>
  </outline>
</glyph>
<glyph name="T" format="1">
  <advance width="1565"/>
  <unicode hex="0054"/>
  <outline>
    <contour>
      <point x="899" y="1486" type="move" name="top"/>
    </contour>
    <contour>
      <point x="709" y="0" type="move" name="bottom"/>
    </contour>
    <contour>
      <point x="278" y="111" type="line"/>
      <point x="266" y="0" type="line"/>
      <point x="1162" y="0" type="line"/>
      <point x="1171" y="111" type="line"/>
      <point x="890" y="131" type="line"/>
      <point x="1058" y="1369" type="line"/>
      <point x="1318" y="1345" type="line"/>
      <point x="1342" y="920" type="line"/>
      <point x="1521" y="920" type="line"/>
      <point x="1597" y="1486" type="line"/>
      <point x="188" y="1486" type="line"/>
      <point x="101" y="920" type="line"/>
      <point x="288" y="920" type="line"/>
      <point x="437" y="1345" type="line"/>
      <point x="709" y="1369" type="line"/>
      <point x="542" y="131" type="line"/>
    </contour>
  </outline>
</glyph>
<glyph name="U" format="1">
  <advance width="1588"/>
  <unicode hex="0055"/>
  <outline>
    <contour>
      <point x="958" y="1486" type="move" name="top"/>
    </contour>
    <contour>
      <point x="994" y="20" type="move" name="ogonek"/>
    </contour>
    <contour>
      <point x="1661" y="1486" type="move" name="topright"/>
    </contour>
    <contour>
      <point x="750" y="0" type="move" name="bottom"/>
    </contour>
    <contour>
      <point x="742" y="-20" type="curve"/>
      <point x="1142" y="-20"/>
      <point x="1369" y="152"/>
      <point x="1427" y="612" type="curve"/>
      <point x="1524" y="1355" type="line"/>
      <point x="1665" y="1381" type="line"/>
      <point x="1678" y="1486" type="line"/>
      <point x="1180" y="1486" type="line"/>
      <point x="1171" y="1381" type="line"/>
      <point x="1330" y="1355" type="line"/>
      <point x="1230" y="612" type="line" smooth="yes"/>
      <point x="1184" y="285"/>
      <point x="1074" y="118"/>
      <point x="802" y="118" type="curve"/>
      <point x="601" y="118"/>
      <point x="510" y="245"/>
      <point x="506" y="412" type="curve"/>
      <point x="505" y="458"/>
      <point x="510" y="530"/>
      <point x="520" y="608" type="curve"/>
      <point x="618" y="1355" type="line"/>
      <point x="823" y="1381" type="line"/>
      <point x="832" y="1486" type="line"/>
      <point x="132" y="1486" type="line"/>
      <point x="121" y="1379" type="line"/>
      <point x="264" y="1355" type="line"/>
      <point x="164" y="580" type="line" smooth="yes"/>
      <point x="158" y="522"/>
      <point x="158" y="468"/>
      <point x="160" y="418" type="curve"/>
      <point x="165" y="173"/>
      <point x="332" y="-20"/>
    </contour>
  </outline>
</glyph>
<glyph name="V" format="1">
  <advance width="1416"/>
  <unicode hex="0056"/>
  <outline>
    <contour>
      <point x="1025" y="1660" type="move" name="top"/>
    </contour>
    <contour>
      <point x="192" y="1355" type="line"/>
      <point x="432" y="-10" type="line"/>
      <point x="730" y="-10" type="line"/>
      <point x="1429" y="1355" type="line"/>
      <point x="1560" y="1379" type="line"/>
      <point x="1571" y="1486" type="line"/>
      <point x="1041" y="1486" type="line"/>
      <point x="1032" y="1379" type="line"/>
      <point x="1224" y="1355" type="line"/>
      <point x="788" y="496" type="line"/>
      <point x="638" y="146" type="line"/>
      <point x="702" y="137" type="line"/>
      <point x="661" y="496" type="line"/>
      <point x="555" y="1355" type="line"/>
      <point x="722" y="1379" type="line"/>
      <point x="730" y="1486" type="line"/>
      <point x="64" y="1486" type="line"/>
      <point x="51" y="1381" type="line"/>
    </contour>
  </outline>
</glyph>
<glyph name="W" format="1">
  <advance width="2162"/>
  <unicode hex="0057"/>
  <outline>
    <contour>
      <point x="1249" y="1486" type="move" name="top"/>
    </contour>
    <contour>
      <point x="994" y="0" type="move" name="bottom"/>
    </contour>
    <contour>
      <point x="1037" y="1353" type="line"/>
      <point x="1222" y="-10" type="line"/>
      <point x="1536" y="-10" type="line"/>
      <point x="2217" y="1355" type="line"/>
      <point x="2370" y="1381" type="line"/>
      <point x="2381" y="1486" type="line"/>
      <point x="1830" y="1486" type="line"/>
      <point x="1823" y="1378" type="line"/>
      <point x="2006" y="1353" type="line"/>
      <point x="1605" y="495" type="line"/>
      <point x="1446" y="163" type="line"/>
      <point x="1514" y="152" type="line"/>
      <point x="1481" y="496" type="line"/>
      <point x="1369" y="1353" type="line"/>
      <point x="1569" y="1378" type="line"/>
      <point x="1578" y="1486" type="line"/>
      <point x="890" y="1486" type="line"/>
      <point x="880" y="1381" type="line"/>
    </contour>
    <contour>
      <point x="126" y="1353" type="line"/>
      <point x="375" y="-10" type="line"/>
      <point x="683" y="-10" type="line"/>
      <point x="1112" y="929" type="line"/>
      <point x="1065" y="1236" type="line"/>
      <point x="724" y="494" type="line"/>
      <point x="591" y="160" type="line"/>
      <point x="662" y="153" type="line"/>
      <point x="600" y="496" type="line"/>
      <point x="466" y="1351" type="line"/>
      <point x="632" y="1379" type="line"/>
      <point x="639" y="1486" type="line"/>
      <point x="9" y="1486" type="line"/>
      <point x="-4" y="1381" type="line"/>
    </contour>
  </outline>
</glyph>
<glyph name="X" format="1">
  <advance width="1495"/>
  <unicode hex="0058"/>
  <outline>
    <contour>
      <point x="1013" y="1660" type="move" name="top"/>
    </contour>
    <contour>
      <point x="662" y="0" type="move" name="bottom"/>
    </contour>
    <contour>
      <point x="-64" y="103" type="line"/>
      <point x="-75" y="0" type="line"/>
      <point x="479" y="0" type="line"/>
      <point x="489" y="103" type="line"/>
      <point x="330" y="131" type="line"/>
      <point x="674" y="580" type="line"/>
      <point x="919" y="780" type="line"/>
      <point x="1436" y="1355" type="line"/>
      <point x="1588" y="1379" type="line"/>
      <point x="1595" y="1486" type="line"/>
      <point x="1034" y="1486" type="line"/>
      <point x="1029" y="1379" type="line"/>
      <point x="1183" y="1355" type="line"/>
      <point x="839" y="924" type="line"/>
      <point x="596" y="744" type="line"/>
      <point x="70" y="131" type="line"/>
    </contour>
    <contour>
      <point x="718" y="103" type="line"/>
      <point x="711" y="0" type="line"/>
      <point x="1433" y="0" type="line"/>
      <point x="1442" y="103" type="line"/>
      <point x="1284" y="131" type="line"/>
      <point x="923" y="780" type="line"/>
      <point x="843" y="924" type="line"/>
      <point x="633" y="1356" type="line"/>
      <point x="807" y="1381" type="line"/>
      <point x="815" y="1486" type="line"/>
      <point x="121" y="1486" type="line"/>
      <point x="112" y="1379" type="line"/>
      <point x="256" y="1355" type="line"/>
      <point x="600" y="744" type="line"/>
      <point x="678" y="580" type="line"/>
      <point x="887" y="130" type="line"/>
    </contour>
  </outline>
</glyph>
<glyph name="Y" format="1">
  <advance width="1417"/>
  <unicode hex="0059"/>
  <outline>
    <contour>
      <point x="612" y="-166" type="move" name="btm"/>
    </contour>
    <contour>
      <point x="165" y="1486" type="move" name="topleft"/>
    </contour>
    <contour>
      <point x="894" y="1486" type="move" name="top"/>
    </contour>
    <contour>
      <point x="616" y="0" type="move" name="bottom"/>
    </contour>
    <contour>
      <point x="222" y="103" type="line"/>
      <point x="211" y="0" type="line"/>
      <point x="1079" y="0" type="line"/>
      <point x="1088" y="103" type="line"/>
      <point x="821" y="131" type="line"/>
      <point x="898" y="726" type="line"/>
      <point x="804" y="474" type="line"/>
      <point x="1438" y="1355" type="line"/>
      <point x="1578" y="1379" type="line"/>
      <point x="1591" y="1486" type="line"/>
      <point x="1031" y="1486" type="line"/>
      <point x="1022" y="1379" type="line"/>
      <point x="1201" y="1355" type="line"/>
      <point x="878" y="884" type="line"/>
      <point x="730" y="618" type="line"/>
      <point x="838" y="608" type="line"/>
      <point x="745" y="884" type="line"/>
      <point x="549" y="1355" type="line"/>
      <point x="737" y="1379" type="line"/>
      <point x="751" y="1486" type="line"/>
      <point x="44" y="1486" type="line"/>
      <point x="26" y="1378" type="line"/>
      <point x="161" y="1356" type="line"/>
      <point x="595" y="463" type="line"/>
      <point x="552" y="727" type="line"/>
      <point x="480" y="130" type="line"/>
    </contour>
  </outline>
</glyph>
<glyph name="Z" format="1">
  <advance width="1376"/>
  <unicode hex="005A"/>
  <outline>
    <contour>
      <point x="787" y="1486" type="move" name="top"/>
    </contour>
    <contour>
      <point x="600" y="0" type="move" name="bottom"/>
    </contour>
    <contour>
      <point x="-44" y="86" type="line"/>
      <point x="-6" y="0" type="line"/>
      <point x="1202" y="0" type="line"/>
      <point x="1304" y="422" type="line"/>
      <point x="1128" y="469" type="line"/>
      <point x="932" y="154" type="line"/>
      <point x="351" y="133" type="line"/>
      <point x="480" y="231" type="line"/>
      <point x="1403" y="1402" type="line"/>
      <point x="1370" y="1486" type="line"/>
      <point x="246" y="1486" type="line"/>
      <point x="183" y="1103" type="line"/>
      <point x="359" y="1082" type="line"/>
      <point x="501" y="1345" type="line"/>
      <point x="1031" y="1363" type="line"/>
      <point x="886" y="1264" type="line"/>
    </contour>
  </outline>
</glyph>
<glyph name="AE" format="1">
  <advance width="2188"/>
  <unicode hex="00C6"/>
  <outline>
    <contour>
      <point x="1255" y="1486" type="move" name="top"/>
    </contour>
    <contour>
      <point x="-205" y="103" type="line"/>
      <point x="-213" y="0" type="line"/>
      <point x="465" y="0" type="line"/>
      <point x="470" y="103" type="line"/>
      <point x="254" y="131" type="line"/>
      <point x="422" y="408" type="line"/>
      <point x="951" y="408" type="line"/>
      <point x="912" y="131" type="line"/>
      <point x="742" y="103" type="line"/>
      <point x="729" y="0" type="line"/>
      <point x="2049" y="0" type="line"/>
      <point x="2119" y="439" type="line"/>
      <point x="1911" y="454" type="line"/>
      <point x="1790" y="164" type="line"/>
      <point x="1257" y="131" type="line"/>
      <point x="1334" y="697" type="line"/>
      <point x="1817" y="665" type="line"/>
      <point x="1847" y="886" type="line"/>
      <point x="1349" y="847" type="line"/>
      <point x="1423" y="1371" type="line"/>
      <point x="1823" y="1345" type="line"/>
      <point x="1865" y="1128" type="line"/>
      <point x="2081" y="1128" type="line"/>
      <point x="2110" y="1486" type="line"/>
      <point x="437" y="1486" type="line"/>
      <point x="422" y="1371" type="line"/>
      <point x="747" y="1345" type="line"/>
      <point x="-29" y="131" type="line"/>
    </contour>
    <contour>
      <point x="968" y="555" type="line"/>
      <point x="501" y="555" type="line"/>
      <point x="966" y="1371" type="line"/>
      <point x="1073" y="1370" type="line"/>
    </contour>
  </outline>
</glyph>
<glyph name="Eth" format="1">
  <advance width="1644"/>
  <unicode hex="00D0"/>
  <outline>
    <contour>
      <point x="107" y="850" type="line"/>
      <point x="82" y="686" type="line"/>
      <point x="934" y="686" type="line"/>
      <point x="956" y="850" type="line"/>
    </contour>
    <contour>
      <point x="669" y="-16" type="curve"/>
      <point x="1331" y="-16"/>
      <point x="1622" y="362"/>
      <point x="1614" y="900" type="curve"/>
      <point x="1608" y="1242"/>
      <point x="1417" y="1504"/>
      <point x="900" y="1502" type="curve"/>
      <point x="774" y="1502"/>
      <point x="642" y="1488"/>
      <point x="522" y="1486" type="curve"/>
      <point x="186" y="1486" type="line"/>
      <point x="177" y="1378" type="line"/>
      <point x="330" y="1356" type="line"/>
      <point x="159" y="130" type="line"/>
      <point x="-11" y="102" type="line"/>
      <point x="-22" y="0" type="line"/>
      <point x="356" y="0" type="line"/>
      <point x="456" y="0"/>
      <point x="590" y="-16"/>
    </contour>
    <contour>
      <point x="467" y="152" type="curve"/>
      <point x="493" y="63" type="line"/>
      <point x="684" y="1397" type="line"/>
      <point x="660" y="1343" type="line"/>
      <point x="694" y="1360"/>
      <point x="755" y="1378"/>
      <point x="866" y="1378" type="curve"/>
      <point x="1121" y="1378"/>
      <point x="1236" y="1236"/>
      <point x="1242" y="866" type="curve"/>
      <point x="1248" y="532"/>
      <point x="1096" y="108"/>
      <point x="685" y="108" type="curve"/>
      <point x="608" y="108"/>
      <point x="467" y="141"/>
    </contour>
  </outline>
</glyph>
<glyph name="Oslash" format="1">
  <advance width="1576"/>
  <unicode hex="00D8"/>
  <outline>
    <contour>
      <point x="900" y="1486" type="move" name="top"/>
    </contour>
    <contour>
      <point x="122" y="-93" type="line"/>
      <point x="236" y="-160" type="line"/>
      <point x="1461" y="1588" type="line"/>
      <point x="1349" y="1653" type="line"/>
    </contour>
    <contour>
      <point x="702" y="-20" type="curve"/>
      <point x="1292" y="-20"/>
      <point x="1547" y="428"/>
      <point x="1538" y="872" type="curve"/>
      <point x="1531" y="1208"/>
      <point x="1353" y="1506"/>
      <point x="906" y="1506" type="curve"/>
      <point x="339" y="1506"/>
      <point x="62" y="1076"/>
      <point x="71" y="622" type="curve"/>
      <point x="77" y="258"/>
      <point x="263" y="-20"/>
    </contour>
    <contour>
      <point x="730" y="100" type="curve"/>
      <point x="510" y="100"/>
      <point x="448" y="380"/>
      <point x="444" y="634" type="curve"/>
      <point x="436" y="1014"/>
      <point x="596" y="1384"/>
      <point x="877" y="1384" type="curve"/>
      <point x="1073" y="1384"/>
      <point x="1156" y="1188"/>
      <point x="1162" y="860" type="curve"/>
      <point x="1170" y="438"/>
      <point x="1024" y="100"/>
    </contour>
  </outline>
</glyph>
<glyph name="Thorn" format="1">
  <advance width="1429"/>
  <unicode hex="00DE"/>
  <outline>
    <contour>
      <point x="-1" y="102" type="line"/>
      <point x="-10" y="0" type="line"/>
      <point x="686" y="0" type="line"/>
      <point x="691" y="102" type="line"/>
      <point x="498" y="130" type="line"/>
      <point x="527" y="340" type="line"/>
      <point x="553" y="338"/>
      <point x="609" y="335"/>
      <point x="686" y="335" type="curve"/>
      <point x="1292" y="335"/>
      <point x="1431" y="603"/>
      <point x="1428" y="820" type="curve"/>
      <point x="1425" y="982"/>
      <point x="1299" y="1141"/>
      <point x="882" y="1141" type="curve"/>
      <point x="803" y="1141"/>
      <point x="712" y="1138"/>
      <point x="637" y="1134" type="curve"/>
      <point x="669" y="1356" type="line"/>
      <point x="865" y="1379" type="line"/>
      <point x="876" y="1486" type="line"/>
      <point x="182" y="1486" type="line"/>
      <point x="169" y="1379" type="line"/>
      <point x="325" y="1355" type="line"/>
      <point x="156" y="130" type="line"/>
    </contour>
    <contour>
      <point x="544" y="468" type="curve"/>
      <point x="620" y="1002" type="line"/>
      <point x="666" y="1010"/>
      <point x="740" y="1016"/>
      <point x="776" y="1016" type="curve"/>
      <point x="959" y="1016"/>
      <point x="1057" y="939"/>
      <point x="1064" y="793" type="curve"/>
      <point x="1073" y="562"/>
      <point x="912" y="468"/>
      <point x="699" y="468" type="curve"/>
      <point x="642" y="468"/>
      <point x="591" y="468"/>
    </contour>
  </outline>
</glyph>
<glyph name="Lslash" format="1">
  <advance width="1397"/>
  <unicode hex="0141"/>
  <outline>
    <contour>
      <point x="13" y="750" type="line"/>
      <point x="74" y="596" type="line"/>
      <point x="1055" y="948" type="line"/>
      <point x="995" y="1112" type="line"/>
    </contour>
    <contour>
      <point x="32" y="103" type="line"/>
      <point x="21" y="0" type="line"/>
      <point x="1248" y="0" type="line"/>
      <point x="1352" y="560" type="line"/>
      <point x="1172" y="582" type="line"/>
      <point x="962" y="145" type="line"/>
      <point x="531" y="125" type="line"/>
      <point x="696" y="1355" type="line"/>
      <point x="895" y="1379" type="line"/>
      <point x="906" y="1486" type="line"/>
      <point x="202" y="1486" type="line"/>
      <point x="189" y="1379" type="line"/>
      <point x="348" y="1355" type="line"/>
      <point x="185" y="131" type="line"/>
    </contour>
  </outline>
</glyph>
<glyph name="Eng" format="1">
  <advance width="1689"/>
  <unicode hex="014A"/>
  <outline>
    <contour>
      <point x="795" y="-356" type="curve"/>
      <point x="845" y="-470" type="line"/>
      <point x="1170" y="-452"/>
      <point x="1365" y="-244"/>
      <point x="1415" y="94" type="curve"/>
      <point x="1611" y="1356" type="line"/>
      <point x="1771" y="1378" type="line"/>
      <point x="1780" y="1486" type="line"/>
      <point x="1241" y="1486" type="line"/>
      <point x="1232" y="1378" type="line"/>
      <point x="1400" y="1356" type="line"/>
      <point x="1255" y="348" type="line"/>
      <point x="1170" y="592" type="line"/>
      <point x="731" y="1486" type="line"/>
      <point x="175" y="1486" type="line"/>
      <point x="160" y="1378" type="line"/>
      <point x="324" y="1356" type="line"/>
      <point x="158" y="130" type="line"/>
      <point x="-1" y="102" type="line"/>
      <point x="-8" y="0" type="line"/>
      <point x="559" y="0" type="line"/>
      <point x="568" y="102" type="line"/>
      <point x="372" y="130" type="line"/>
      <point x="496" y="1248" type="line"/>
      <point x="584" y="1007" type="line"/>
      <point x="1099" y="0" type="line"/>
      <point x="1103" y="-194"/>
      <point x="944" y="-331"/>
    </contour>
  </outline>
</glyph>
<glyph name="OE" format="1">
  <advance width="2530"/>
  <unicode hex="0152"/>
  <outline>
    <contour>
      <point x="716" y="-20" type="curve"/>
      <point x="959" y="-20"/>
      <point x="1139" y="52"/>
      <point x="1263" y="166" type="curve"/>
      <point x="1240" y="0" type="line"/>
      <point x="2367" y="0" type="line"/>
      <point x="2436" y="440" type="line"/>
      <point x="2228" y="454" type="line"/>
      <point x="2113" y="176" type="line"/>
      <point x="1579" y="142" type="line"/>
      <point x="1656" y="712" type="line"/>
      <point x="2139" y="676" type="line"/>
      <point x="2174" y="904" type="line"/>
      <point x="1672" y="858" type="line"/>
      <point x="1740" y="1370" type="line"/>
      <point x="2145" y="1346" type="line"/>
      <point x="2195" y="1128" type="line"/>
      <point x="2400" y="1128" type="line"/>
      <point x="2427" y="1486" type="line"/>
      <point x="1426" y="1486" type="line"/>
      <point x="1397" y="1290" type="line"/>
      <point x="1316" y="1420"/>
      <point x="1165" y="1506"/>
      <point x="915" y="1506" type="curve"/>
      <point x="339" y="1506"/>
      <point x="60" y="1076"/>
      <point x="71" y="622" type="curve"/>
      <point x="78" y="256"/>
      <point x="275" y="-20"/>
    </contour>
    <contour>
      <point x="742" y="100" type="curve"/>
      <point x="500" y="100"/>
      <point x="441" y="380"/>
      <point x="434" y="636" type="curve"/>
      <point x="427" y="1014"/>
      <point x="597" y="1384"/>
      <point x="888" y="1384" type="curve"/>
      <point x="1098" y="1384"/>
      <point x="1185" y="1190"/>
      <point x="1191" y="860" type="curve"/>
      <point x="1199" y="438"/>
      <point x="1049" y="100"/>
    </contour>
  </outline>
</glyph>
<glyph name="Ohorn" format="1">
  <advance width="1620"/>
  <unicode hex="01A0"/>
  <outline>
    <contour>
      <point x="1077" y="1408" type="curve"/>
      <point x="1311" y="1268" type="line"/>
      <point x="1525" y="1282"/>
      <point x="1739" y="1432"/>
      <point x="1735" y="1688" type="curve"/>
      <point x="1735" y="1702"/>
      <point x="1732" y="1718"/>
      <point x="1727" y="1730" type="curve"/>
      <point x="1480" y="1730" type="line"/>
      <point x="1482" y="1716"/>
      <point x="1486" y="1700"/>
      <point x="1487" y="1672" type="curve"/>
      <point x="1489" y="1544"/>
      <point x="1375" y="1360"/>
    </contour>
    <contour>
      <point x="702" y="-20" type="curve"/>
      <point x="1292" y="-20"/>
      <point x="1547" y="428"/>
      <point x="1538" y="872" type="curve"/>
      <point x="1531" y="1208"/>
      <point x="1353" y="1506"/>
      <point x="906" y="1506" type="curve"/>
      <point x="339" y="1506"/>
      <point x="62" y="1076"/>
      <point x="71" y="622" type="curve"/>
      <point x="77" y="258"/>
      <point x="263" y="-20"/>
    </contour>
    <contour>
      <point x="730" y="100" type="curve"/>
      <point x="510" y="100"/>
      <point x="448" y="380"/>
      <point x="444" y="634" type="curve"/>
      <point x="436" y="1014"/>
      <point x="596" y="1384"/>
      <point x="877" y="1384" type="curve"/>
      <point x="1073" y="1384"/>
      <point x="1156" y="1188"/>
      <point x="1162" y="860" type="curve"/>
      <point x="1170" y="438"/>
      <point x="1024" y="100"/>
    </contour>
  </outline>
</glyph>
<glyph name="Uhorn" format="1">
  <advance width="1755"/>
  <unicode hex="01AF"/>
  <outline>
    <contour>
      <point x="974" y="1486" type="move" name="top"/>
    </contour>
    <contour>
      <point x="755" y="0" type="move" name="bottom"/>
    </contour>
    <contour>
      <point x="132" y="1486" type="line"/>
      <point x="121" y="1379" type="line"/>
      <point x="279" y="1355" type="line"/>
      <point x="178" y="580" type="line" smooth="yes"/>
      <point x="172" y="522"/>
      <point x="172" y="468"/>
      <point x="173" y="418" type="curve"/>
      <point x="178" y="173"/>
      <point x="346" y="-20"/>
      <point x="756" y="-20" type="curve"/>
      <point x="1157" y="-20"/>
      <point x="1383" y="152"/>
      <point x="1441" y="612" type="curve"/>
      <point x="1538" y="1355" type="line"/>
      <point x="1810" y="1397"/>
      <point x="1908" y="1492"/>
      <point x="1901" y="1686" type="curve"/>
      <point x="1901" y="1700"/>
      <point x="1898" y="1714"/>
      <point x="1896" y="1730" type="curve"/>
      <point x="1640" y="1730" type="line"/>
      <point x="1642" y="1722"/>
      <point x="1642" y="1710"/>
      <point x="1642" y="1696" type="curve"/>
      <point x="1644" y="1596"/>
      <point x="1604" y="1486"/>
      <point x="1419" y="1486" type="curve"/>
      <point x="1194" y="1486" type="line"/>
      <point x="1185" y="1381" type="line"/>
      <point x="1346" y="1355" type="line"/>
      <point x="1245" y="612" type="line" smooth="yes"/>
      <point x="1199" y="285"/>
      <point x="1088" y="101"/>
      <point x="816" y="101" type="curve"/>
      <point x="621" y="101"/>
      <point x="519" y="225"/>
      <point x="515" y="412" type="curve"/>
      <point x="513" y="458"/>
      <point x="520" y="530"/>
      <point x="528" y="608" type="curve"/>
      <point x="628" y="1355" type="line"/>
      <point x="837" y="1381" type="line"/>
      <point x="846" y="1486" type="line"/>
    </contour>
  </outline>
</glyph>
<glyph name="Ezh" format="1">
  <advance width="1328"/>
  <outline>
    <contour>
      <point x="789" y="1486" type="move" name="top"/>
    </contour>
    <contour>
      <point x="576" y="-12" type="curve"/>
      <point x="968" y="-12"/>
      <point x="1326" y="150"/>
      <point x="1320" y="505" type="curve"/>
      <point x="1317" y="687"/>
      <point x="1085" y="826"/>
      <point x="864" y="826" type="curve"/>
      <point x="857" y="733" type="line"/>
      <point x="1380" y="1405" type="line"/>
      <point x="1346" y="1486" type="line"/>
      <point x="224" y="1486" type="line"/>
      <point x="159" y="1103" type="line"/>
      <point x="339" y="1082" type="line"/>
      <point x="481" y="1346" type="line"/>
      <point x="1002" y="1365" type="line"/>
      <point x="863" y="1267" type="line"/>
      <point x="513" y="820" type="line"/>
      <point x="577" y="749" type="line"/>
      <point x="601" y="766"/>
      <point x="639" y="781"/>
      <point x="705" y="781" type="curve"/>
      <point x="838" y="781"/>
      <point x="916" y="666"/>
      <point x="919" y="524" type="curve"/>
      <point x="923" y="274"/>
      <point x="769" y="109"/>
      <point x="575" y="109" type="curve"/>
      <point x="442" y="109"/>
      <point x="338" y="149"/>
      <point x="322" y="157" type="curve"/>
      <point x="320" y="425" type="line"/>
      <point x="91" y="425" type="line"/>
      <point x="0" y="113" type="line"/>
      <point x="101" y="53"/>
      <point x="358" y="-12"/>
    </contour>
  </outline>
</glyph>
<glyph name="Germandbls" format="1">
  <advance width="1595"/>
  <outline>
    <contour>
      <point x="993" y="-6" type="curve"/>
      <point x="1299" y="-6"/>
      <point x="1561" y="163"/>
      <point x="1556" y="467" type="curve"/>
      <point x="1552" y="727"/>
      <point x="1322" y="849"/>
      <point x="1118" y="900" type="curve"/>
      <point x="1466" y="1289" type="line"/>
      <point x="1475" y="1366" type="line"/>
      <point x="1417" y="1426"/>
      <point x="1282" y="1509"/>
      <point x="981" y="1509" type="curve"/>
      <point x="533" y="1509"/>
      <point x="223" y="1240"/>
      <point x="183" y="906" type="curve"/>
      <point x="78" y="131" type="line"/>
      <point x="-61" y="103" type="line"/>
      <point x="-70" y="0" type="line"/>
      <point x="417" y="0" type="line"/>
      <point x="544" y="945" type="line" smooth="yes"/>
      <point x="582" y="1226"/>
      <point x="696" y="1390"/>
      <point x="945" y="1390" type="curve"/>
      <point x="1094" y="1390"/>
      <point x="1174" y="1285"/>
      <point x="1162" y="1191" type="curve"/>
      <point x="867" y="850" type="line"/>
      <point x="857" y="781" type="line"/>
      <point x="981" y="718"/>
      <point x="1195" y="593"/>
      <point x="1198" y="408" type="curve"/>
      <point x="1201" y="197"/>
      <point x="1124" y="103"/>
      <point x="1002" y="103" type="curve"/>
      <point x="923" y="103"/>
      <point x="867" y="127"/>
      <point x="845" y="179" type="curve"/>
      <point x="812" y="343" type="line"/>
      <point x="648" y="343" type="line"/>
      <point x="611" y="54" type="line"/>
      <point x="688" y="48"/>
      <point x="819" y="-6"/>
    </contour>
  </outline>
</glyph>
<glyph name="Schwa" format="1">
  <advance width="1505"/>
  <outline>
    <contour>
      <point x="623" y="-22" type="curve"/>
      <point x="1058" y="-22"/>
      <point x="1423" y="368"/>
      <point x="1415" y="904" type="curve"/>
      <point x="1409" y="1264"/>
      <point x="1180" y="1502"/>
      <point x="837" y="1502" type="curve"/>
      <point x="443" y="1502"/>
      <point x="355" y="1414"/>
      <point x="237" y="1414" type="curve"/>
      <point x="192" y="1090" type="line"/>
      <point x="377" y="1090" type="line"/>
      <point x="472" y="1291" type="line" smooth="yes"/>
      <point x="512" y="1358"/>
      <point x="593" y="1391"/>
      <point x="730" y="1391" type="curve"/>
      <point x="971" y="1391"/>
      <point x="1071" y="1141"/>
      <point x="1062" y="791" type="curve"/>
      <point x="1062" y="780"/>
      <point x="1060" y="771"/>
      <point x="1058" y="760" type="curve"/>
      <point x="123" y="760" type="line"/>
      <point x="101" y="706"/>
      <point x="75" y="582"/>
      <point x="77" y="468" type="curve"/>
      <point x="82" y="156"/>
      <point x="287" y="-22"/>
    </contour>
    <contour>
      <point x="671" y="107" type="curve"/>
      <point x="487" y="107"/>
      <point x="420" y="235"/>
      <point x="417" y="434" type="curve"/>
      <point x="416" y="503"/>
      <point x="429" y="555"/>
      <point x="446" y="627" type="curve"/>
      <point x="1048" y="627" type="line"/>
      <point x="1000" y="235"/>
      <point x="847" y="107"/>
    </contour>
  </outline>
</glyph>
